<svg width="20" height="20" viewBox="0 0 20 20" fill="none" xmlns="http://www.w3.org/2000/svg">
<path fill-rule="evenodd" clip-rule="evenodd" d="M0 8C0 3.58172 3.50386 0 7.82609 0C12.1483 0 15.6522 3.58172 15.6522 8C15.6872 9.78381 15.0974 11.5217 13.9891 12.9L19.1739 18.2C19.5048 18.5749 19.5103 19.1432 19.1868 19.5247C18.8633 19.9063 18.3123 19.9815 17.9022 19.7L17.8043 19.6L12.6196 14.3C11.2552 15.4034 9.5658 16.0025 7.82609 16C3.50386 16 0 12.4183 0 8ZM1.95652 8C1.95652 11.3137 4.58442 14 7.82609 14C9.38279 14 10.8757 13.3679 11.9765 12.2426C13.0773 11.1174 13.6957 9.5913 13.6957 8C13.6957 4.68629 11.0678 2 7.82609 2C4.58442 2 1.95652 4.68629 1.95652 8Z" fill="white"/>
</svg>
